PathFileType	3	(X/Y/Z)	D:\Jess\Healthy\Labelled\HA13\20250417\SRRun01.trc
DataRate	CameraRate	NumFrames	NumMarkers	Units	OrigDataRate	OrigDataStartFrame	OrigNumFrames
250.0	250.0	4	37	mm	250.0	35625	2501
Frame#	Time	C7			T10			CLAV			LSHO			RSHO			LASIS			RASIS			LPSIS			RPSIS			LILCR			RILCR			LGTR			LTHI			LLTHI			LLEP			LMEP			LPSH			LLSH			LDSH			LLMAL			LMMAL			LTOE			L5TH			LHEE			RGTR			RTHI			RLTHI			RLEP			RMEP			RPSH			RLSH			RDSH			RLMAL			RMMAL			RTOE			R5TH			RHEE			
		X1	Y1	Z1	X2	Y2	Z2	X3	Y3	Z3	X4	Y4	Z4	X5	Y5	Z5	X6	Y6	Z6	X7	Y7	Z7	X8	Y8	Z8	X9	Y9	Z9	X10	Y10	Z10	X11	Y11	Z11	X12	Y12	Z12	X13	Y13	Z13	X14	Y14	Z14	X15	Y15	Z15	X16	Y16	Z16	X17	Y17	Z17	X18	Y18	Z18	X19	Y19	Z19	X20	Y20	Z20	X21	Y21	Z21	X22	Y22	Z22	X23	Y23	Z23	X24	Y24	Z24	X25	Y25	Z25	X26	Y26	Z26	X27	Y27	Z27	X28	Y28	Z28	X29	Y29	Z29	X30	Y30	Z30	X31	Y31	Z31	X32	Y32	Z32	X33	Y33	Z33	X34	Y34	Z34	X35	Y35	Z35	X36	Y36	Z36	X37	Y37	Z37	

626	142.496	935.490346909579	1569.994688745906	-307.3767330470931	859.6436014291842	1314.960400725776	-326.0715237260528	1088.267420771361	1462.533222515232	-281.894679459092	1017.407198189403	1551.995671878178	-452.561261427433	967.0779505906519	1541.647613481731	-155.329794995388	1053.013717040277	1030.198425611707	-408.9303288601569	1030.382119200427	1046.01545833185	-199.804688421548	861.4873710951339	1070.844168269965	-339.0540229274052	854.6633095668086	1068.104607518062	-294.5298035754574	1003.333188593815	1103.099062830742	-468.8189648175485	970.6778271466324	1105.488749440434	-149.6817195186931	999.5385334979288	849.2423861606791	-469.1359533012536	1069.776078723216	738.144724527103	-408.6838188466551	967.6688724809608	651.4274625284207	-457.4250376094724	949.0335953952085	529.8933034064175	-437.9941748946045	nan	nan	nan	885.7890677784987	422.7095418000275	-405.4709320799539	737.7058086549728	472.1399469886583	-451.8408589287367	657.9380391786933	380.5364825986998	-413.4215069723277	553.4392026263687	405.2739664826977	-437.3515971035538	nan	nan	nan	512.3249019682183	247.2404636860369	-445.6716879591986	472.6818093488955	284.6342130492485	-473.7222526219919	502.7920055313938	454.4245793524694	-369.138408215353	1011.456168821446	884.474010393182	-124.915008541181	1121.76933612887	801.6439071644533	-208.7415959811455	1039.291289743453	671.4733387951899	-152.854786603615	1081.716804918114	522.4421549481677	-176.6194553256049	nan	nan	nan	1138.733712683745	439.9548110672594	-232.1490895006804	1055.773145089682	327.9594091123932	-187.0817968206426	1097.874598999419	192.1783650150613	-269.8053090405347	1043.456364419947	114.8351793310111	-247.1396120321607	nan	nan	nan	1192.29520519465	63.11308631588449	-263.6771768134241	1139.080116609678	38.11249031890779	-228.5234719065284	969.0354360648503	84.30313328278439	-301.4707323075154	
627	142.5	935.2044483860248	1567.072525220264	-306.8276121752517	859.3957859431271	1311.869655389386	-326.0786514848735	1088.769456927126	1458.310485723592	-282.5842297337838	1016.506275323216	1548.707045318756	-452.8760352834258	967.6012756214782	1538.214088385517	-154.6541861760899	1052.537350284058	1026.130354883854	-408.6793739578745	1029.576770514899	1043.098649544526	-199.4905259849134	860.8169556523388	1066.791433410196	-339.6076524960965	853.9989894693011	1064.223440126675	-295.1341259663331	1003.118536413787	1098.071021449594	-469.30405155622	969.7125593254198	1101.394163472436	-149.392866481839	1001.634950275494	845.544747557051	-469.1569759264573	1073.136155962763	735.2576134059755	-409.347793868896	972.5370792551893	647.6213934978907	-457.8239231535306	956.4986473202282	526.5674102927172	-438.8456619759031	nan	nan	nan	893.2587411067852	420.6342048087764	-406.1577451849385	745.8817485137131	471.58372465722	-452.8750881255144	665.0709521788776	381.4416868947999	-414.2894688675593	560.9352264642492	407.6860770744674	-438.1822662854333	nan	nan	nan	518.6482238158	250.0634344382653	-447.3973039869069	479.4569562659371	287.9614215774873	-475.4700756372817	510.3446989249016	457.0779293793593	-369.8625810790375	1010.241624976507	881.7281044022313	-125.0354295962658	1121.288445762161	798.6389171923953	-207.0209629532882	1036.505747856088	668.9150965615063	-153.7080306883085	1078.928473036545	519.6520485167421	-177.4744136299177	nan	nan	nan	1134.522425345671	436.4486336874219	-233.7003641456305	1049.67325966502	325.9155622178029	-188.5543265287142	1088.048497254724	189.6503876821517	-272.0962149467664	1032.316624327284	113.8178969141978	-249.1354762065124	nan	nan	nan	1180.299030649314	62.18779573700277	-264.9096018357968	1126.915877117865	38.19427722662154	-229.1140206446051	957.0130040325412	83.65062829115989	-303.1592596378334	
628	142.504	934.9485905861078	1564.32528546138	-306.2750822229743	859.1136686666822	1308.996313825066	-326.0957445871205	1089.260364247785	1454.1998192399	-283.2858655164429	1015.616463120645	1545.532341197623	-453.205045664896	968.1265818264558	1534.918825805351	-153.9500514857634	1051.966374970636	1022.088868046999	-408.4151165784785	1028.6820951251	1040.280176005721	-199.1907611554927	860.0771274769942	1062.945449742575	-340.1672006173061	853.2688247935396	1060.562715939331	-295.750152772958	1002.778051954328	1093.028036582771	-469.8059852825077	968.6384965942597	1097.382701746394	-149.1109219282248	1003.709029552387	842.0241825556684	-469.2010387611044	1076.512043469624	732.6057693162732	-410.0310012660304	977.4347005338684	644.0746526678959	-458.2164160937887	964.078009407099	523.5192033259306	-439.6941066577593	nan	nan	nan	900.9568193506934	418.7708280167237	-406.8050937696409	754.2356564319357	471.061745999919	-453.8959250653729	672.5091054098676	382.2350689296674	-415.0905217169156	568.7156278048064	409.8024660913472	-438.9779498880736	nan	nan	nan	525.6131000451677	252.5274323882686	-449.0133831367407	486.8350931878233	290.8237565237251	-477.1749169364743	518.0017500464086	459.3622859716533	-370.6245034873118	1008.766913870283	879.051257418997	-125.1162036395916	1120.554165714015	795.4948180181046	-205.335778145965	1033.461635686651	666.4404867562801	-154.5431699199139	1075.918187472514	517.0101320050379	-178.3096535764544	nan	nan	nan	1130.060014536253	433.1271937923891	-235.2248173507379	1043.384715056703	324.0817002791939	-189.9213162660063	1078.040438236491	187.366786864557	-274.1933160373985	1021.05201721254	113.0164901136552	-250.9229005147158	nan	nan	nan	1168.197191413118	61.48282664998597	-265.9709777373429	1114.682922300081	38.39696291920075	-229.6109175483048	944.9003478454509	83.1653572762624	-304.6359721664639	
629	142.508	934.7266537110335	1561.774197149062	-305.7242462105283	858.7979793737685	1306.367422004083	-326.1169771478677	1089.730455649852	1450.248361233771	-283.9944853822666	1014.743298570356	1542.500868124613	-453.543917881959	968.6636680510725	1531.790001005435	-153.2251347529895	1051.30673751699	1018.125890893718	-408.1463949991895	1027.707568151254	1037.587161629612	-198.9099079141614	859.2763122620474	1059.351550932013	-340.7347206376867	852.4830519518049	1057.164594262966	-296.3804109773542	1002.299987490465	1088.035984425034	-470.3245857282412	967.4497509647499	1093.50217843065	-148.844966955214	1005.749665547918	838.7277214350177	-469.2719266751284	1079.898534727484	730.2500700798161	-410.7136892299105	982.3666343068998	640.8317040868869	-458.5982382463763	971.7674802841435	520.7894804748773	-440.517988698192	nan	nan	nan	908.8781678742665	417.1424156988346	-407.4021661795574	762.7554184063587	470.5992936662425	-454.8845887048502	680.2375201552418	382.9162267719221	-415.8213846004672	576.7573933562086	411.6134210642045	-439.7388700274935	nan	nan	nan	533.1987674840834	254.6154302711888	-450.5170221249361	494.7912029948426	293.2039220601774	-478.8334747084413	525.7387337247686	461.2669472051181	-371.4259968584209	1007.036844892008	876.4754409345013	-125.1571335938654	1119.550400417166	792.2708276481731	-203.7396245871893	1030.208623566416	664.0736738705925	-155.3323419787711	1072.682752345673	514.5261735661767	-179.1044026691134	nan	nan	nan	1125.339634547647	429.9966802384167	-236.6841521424217	1036.905914029561	322.4543874778169	-191.1553467682208	1067.87571831154	185.3262567493948	-276.0610075614268	1009.691185376432	112.4156618872238	-252.4756134430339	nan	nan	nan	1156.024792396774	60.96649611295746	-266.854601499925	1102.411297102279	38.68306046852768	-230.013097630379	932.7332077919942	82.83725774328232	-305.8869789217341	
